<!--?xml version="1.0" standalone="no"?-->
              <svg id="sw-js-blob-svg" viewBox="0 0 100 100" xmlns="http://www.w3.org/2000/svg" version="1.1">
                    <defs> 
                        <linearGradient id="sw-gradient" x1="0" x2="1" y1="1" y2="0">
                            <stop id="stop1" stop-color="rgba(48.667, 165.873, 255, 1)" offset="0%"></stop>
                            <stop id="stop2" stop-color="rgba(31, 223.795, 251, 1)" offset="100%"></stop>
                        </linearGradient>
                    </defs>
                <path fill="url(#sw-gradient)" d="M25,-29C32.6,-23.4,39.1,-15.7,40,-7.5C41,0.8,36.4,9.6,31.6,18.7C26.9,27.8,21.9,37.3,14.5,40.2C7,43.1,-3,39.4,-12.1,35.2C-21.2,31,-29.3,26.4,-35.3,19C-41.2,11.6,-44.9,1.5,-41.8,-5.9C-38.7,-13.2,-28.8,-17.9,-20.7,-23.5C-12.6,-29,-6.3,-35.5,1.2,-36.9C8.7,-38.4,17.4,-34.7,25,-29Z" width="100%" height="100%" transform="translate(50 50)" stroke-width="0" style="transition: all 0.3s ease 0s;" stroke="url(#sw-gradient)"></path>
              </svg>